{
  "accessors": [
    {
      "bufferView": 2,
      "componentType": 5126,
      "count": 559,
      "max": [
        268675.21875,
        268676.34375,
        301875.4375
      ],
      "min": [
        -268675.375,
        -268676.34375,
        -235474.96875
      ],
      "type": "VEC3"
    },
    {
      "bufferView": 2,
      "byteOffset": 6708,
      "componentType": 5126,
      "count": 559,
      "max": [
        0.9999964833259583,
        1.0,
        0.9999964833259583
      ],
      "min": [
        -0.9999964833259583,
        -1.0,
        -0.9999964833259583
      ],
      "type": "VEC3"
    },
    {
      "bufferView": 1,
      "componentType": 5126,
      "count": 559,
      "max": [
        1.0,
        1.0
      ],
      "min": [
        0.0,
        0.0
      ],
      "type": "VEC2"
    },
    {
      "bufferView": 0,
      "componentType": 5125,
      "count": 2880,
      "type": "SCALAR"
    },
    {
      "bufferView": 2,
      "byteOffset": 13416,
      "componentType": 5126,
      "count": 1984,
      "max": [
        -33656.2421875,
        12441.310546875,
        72243.2421875
      ],
      "min": [
        -65583.984375,
        -19569.779296875,
        40315.515625
      ],
      "type": "VEC3"
    },
    {
      "bufferView": 2,
      "byteOffset": 37224,
      "componentType": 5126,
      "count": 1984,
      "max": [
        0.9948943853378296,
        0.9951385259628296,
        0.9948943853378296
      ],
      "min": [
        -0.9948945641517639,
        -0.9951384663581848,
        -0.9948945045471191
      ],
      "type": "VEC3"
    },
    {
      "bufferView": 3,
      "componentType": 5126,
      "count": 1984,
      "max": [
        0.9989392161369324,
        0.9951885938644409,
        0.9984743595123291,
        1.0
      ],
      "min": [
        -0.9866247177124023,
        -0.7655856013298035,
        -0.9993383884429932,
        1.0
      ],
      "type": "VEC4"
    },
    {
      "bufferView": 1,
      "byteOffset": 4472,
      "componentType": 5126,
      "count": 1984,
      "max": [
        1.0,
        0.7038341760635376
      ],
      "min": [
        7.348312625055087e-09,
        2.0509621778685982e-10
      ],
      "type": "VEC2"
    },
    {
      "bufferView": 1,
      "byteOffset": 20344,
      "componentType": 5126,
      "count": 1984,
      "max": [
        1.0,
        0.7038341760635376
      ],
      "min": [
        7.348312625055087e-09,
        2.0509621778685982e-10
      ],
      "type": "VEC2"
    },
    {
      "bufferView": 1,
      "byteOffset": 36216,
      "componentType": 5126,
      "count": 1984,
      "max": [
        1.0,
        0.7038341760635376
      ],
      "min": [
        7.348312625055087e-09,
        2.0509621778685982e-10
      ],
      "type": "VEC2"
    },
    {
      "bufferView": 0,
      "byteOffset": 11520,
      "componentType": 5125,
      "count": 2880,
      "type": "SCALAR"
    },
    {
      "bufferView": 2,
      "byteOffset": 61032,
      "componentType": 5126,
      "count": 596,
      "max": [
        29912.294921875,
        4582.49853515625,
        64148.37109375
      ],
      "min": [
        20763.0703125,
        -4582.49853515625,
        54999.14453125
      ],
      "type": "VEC3"
    },
    {
      "bufferView": 2,
      "byteOffset": 68184,
      "componentType": 5126,
      "count": 596,
      "max": [
        0.9982797503471375,
        1.0,
        0.9982796907424927
      ],
      "min": [
        -0.9982796907424927,
        -1.0,
        -0.9982796907424927
      ],
      "type": "VEC3"
    },
    {
      "bufferView": 3,
      "byteOffset": 31744,
      "componentType": 5126,
      "count": 596,
      "max": [
        0.9991320967674255,
        0.8299658894538879,
        0.9990174174308777,
        1.0
      ],
      "min": [
        -0.9987974762916565,
        -0.9999531507492065,
        -0.9993263483047485,
        1.0
      ],
      "type": "VEC4"
    },
    {
      "bufferView": 1,
      "byteOffset": 52088,
      "componentType": 5126,
      "count": 596,
      "max": [
        1.0,
        0.7038341760635376
      ],
      "min": [
        -1.3815689037244283e-08,
        -1.0258325744416652e-08
      ],
      "type": "VEC2"
    },
    {
      "bufferView": 1,
      "byteOffset": 56856,
      "componentType": 5126,
      "count": 596,
      "max": [
        1.0,
        0.7038341760635376
      ],
      "min": [
        -1.3815689037244283e-08,
        -1.0258325744416652e-08
      ],
      "type": "VEC2"
    },
    {
      "bufferView": 1,
      "byteOffset": 61624,
      "componentType": 5126,
      "count": 596,
      "max": [
        1.0,
        0.7038341760635376
      ],
      "min": [
        -1.3815689037244283e-08,
        -1.0258325744416652e-08
      ],
      "type": "VEC2"
    },
    {
      "bufferView": 0,
      "byteOffset": 23040,
      "componentType": 5125,
      "count": 2880,
      "type": "SCALAR"
    },
    {
      "bufferView": 2,
      "byteOffset": 75336,
      "componentType": 5126,
      "count": 1984,
      "max": [
        30399.115234375,
        -2554.0234375,
        52796.78515625
      ],
      "min": [
        29025.58984375,
        -3930.890869140625,
        51423.26171875
      ],
      "type": "VEC3"
    },
    {
      "bufferView": 2,
      "byteOffset": 99144,
      "componentType": 5126,
      "count": 1984,
      "max": [
        0.9948272705078125,
        0.9951385855674744,
        0.994827389717102
      ],
      "min": [
        -0.9948270320892334,
        -0.9951384663581848,
        -0.9948270320892334
      ],
      "type": "VEC3"
    },
    {
      "bufferView": 3,
      "byteOffset": 41280,
      "componentType": 5126,
      "count": 1984,
      "max": [
        0.9974682927131653,
        0.6821126341819763,
        0.9989575743675232,
        1.0
      ],
      "min": [
        -0.9993196725845337,
        -0.9951887726783752,
        -0.9257760047912598,
        1.0
      ],
      "type": "VEC4"
    },
    {
      "bufferView": 1,
      "byteOffset": 66392,
      "componentType": 5126,
      "count": 1984,
      "max": [
        1.0,
        0.7100385427474976
      ],
      "min": [
        -2.0456733196283494e-08,
        -2.129642906467666e-09
      ],
      "type": "VEC2"
    },
    {
      "bufferView": 1,
      "byteOffset": 82264,
      "componentType": 5126,
      "count": 1984,
      "max": [
        1.0,
        0.7100385427474976
      ],
      "min": [
        -2.0456733196283494e-08,
        -2.129642906467666e-09
      ],
      "type": "VEC2"
    },
    {
      "bufferView": 1,
      "byteOffset": 98136,
      "componentType": 5126,
      "count": 1984,
      "max": [
        1.0,
        0.7100385427474976
      ],
      "min": [
        -2.0456733196283494e-08,
        -2.129642906467666e-09
      ],
      "type": "VEC2"
    },
    {
      "bufferView": 0,
      "byteOffset": 34560,
      "componentType": 5125,
      "count": 2880,
      "type": "SCALAR"
    },
    {
      "bufferView": 4,
      "componentType": 5126,
      "count": 3000,
      "max": [
        99.96666717529297
      ],
      "min": [
        0.0
      ],
      "type": "SCALAR"
    },
    {
      "bufferView": 5,
      "componentType": 5126,
      "count": 3000,
      "max": [
        33200.31640625,
        -1.1750275916710962e-06,
        -4.139614526212827e-28
      ],
      "min": [
        -10618.0390625,
        -45824.171875,
        -4.139614526212827e-28
      ],
      "type": "VEC3"
    },
    {
      "bufferView": 4,
      "byteOffset": 12000,
      "componentType": 5126,
      "count": 1828,
      "max": [
        99.96666717529297
      ],
      "min": [
        0.0
      ],
      "type": "SCALAR"
    },
    {
      "bufferView": 5,
      "byteOffset": 36000,
      "componentType": 5126,
      "count": 1828,
      "max": [
        1.0000001192092896,
        1.0,
        1.0000001192092896
      ],
      "min": [
        0.9999999403953552,
        1.0,
        0.9999999403953552
      ],
      "type": "VEC3"
    },
    {
      "bufferView": 4,
      "byteOffset": 19312,
      "componentType": 5126,
      "count": 3000,
      "max": [
        99.96666717529297
      ],
      "min": [
        0.0
      ],
      "type": "SCALAR"
    },
    {
      "bufferView": 6,
      "componentType": 5126,
      "count": 3000,
      "max": [
        0.7071067690849304,
        0.5874165892601013,
        0.5874165892601013,
        0.7071067690849304
      ],
      "min": [
        -0.49988213181495667,
        -0.49992725253105164,
        -0.49992725253105164,
        -0.49988213181495667
      ],
      "type": "VEC4"
    },
    {
      "bufferView": 4,
      "byteOffset": 31312,
      "componentType": 5126,
      "count": 3000,
      "max": [
        99.96666717529297
      ],
      "min": [
        0.0
      ],
      "type": "SCALAR"
    },
    {
      "bufferView": 5,
      "byteOffset": 57936,
      "componentType": 5126,
      "count": 3000,
      "max": [
        25410.0390625,
        18750.77734375,
        -7.105427357601002e-13
      ],
      "min": [
        -124650.25,
        -131309.53125,
        -7.105427357601002e-13
      ],
      "type": "VEC3"
    },
    {
      "bufferView": 4,
      "byteOffset": 43312,
      "componentType": 5126,
      "count": 1376,
      "max": [
        99.96666717529297
      ],
      "min": [
        0.0
      ],
      "type": "SCALAR"
    },
    {
      "bufferView": 5,
      "byteOffset": 93936,
      "componentType": 5126,
      "count": 1376,
      "max": [
        1.0000001192092896,
        1.0,
        1.0000001192092896
      ],
      "min": [
        0.9999999403953552,
        1.0,
        0.9999999403953552
      ],
      "type": "VEC3"
    },
    {
      "bufferView": 4,
      "byteOffset": 48816,
      "componentType": 5126,
      "count": 3000,
      "max": [
        99.96666717529297
      ],
      "min": [
        0.0
      ],
      "type": "SCALAR"
    },
    {
      "bufferView": 6,
      "byteOffset": 48000,
      "componentType": 5126,
      "count": 3000,
      "max": [
        0.7071067690849304,
        0.7071067690849304,
        0.7071067690849304,
        0.7071067690849304
      ],
      "min": [
        -0.49991559982299805,
        -0.4995618760585785,
        -0.4995618760585785,
        -0.49991559982299805
      ],
      "type": "VEC4"
    },
    {
      "bufferView": 4,
      "byteOffset": 60816,
      "componentType": 5126,
      "count": 3000,
      "max": [
        99.96666717529297
      ],
      "min": [
        0.0
      ],
      "type": "SCALAR"
    },
    {
      "bufferView": 5,
      "byteOffset": 110448,
      "componentType": 5126,
      "count": 3000,
      "max": [
        74269.984375,
        79391.40625,
        9.0373848565433e-28
      ],
      "min": [
        -173795.34375,
        -192099.234375,
        9.0373848565433e-28
      ],
      "type": "VEC3"
    },
    {
      "bufferView": 4,
      "byteOffset": 72816,
      "componentType": 5126,
      "count": 2721,
      "max": [
        99.96666717529297
      ],
      "min": [
        0.0
      ],
      "type": "SCALAR"
    },
    {
      "bufferView": 5,
      "byteOffset": 146448,
      "componentType": 5126,
      "count": 2721,
      "max": [
        1.0000001192092896,
        1.0,
        1.0000001192092896
      ],
      "min": [
        0.9999997019767761,
        1.0,
        0.9999997019767761
      ],
      "type": "VEC3"
    },
    {
      "bufferView": 4,
      "byteOffset": 83700,
      "componentType": 5126,
      "count": 3000,
      "max": [
        99.96666717529297
      ],
      "min": [
        0.0
      ],
      "type": "SCALAR"
    },
    {
      "bufferView": 6,
      "byteOffset": 96000,
      "componentType": 5126,
      "count": 3000,
      "max": [
        0.7071067690849304,
        0.7071067094802856,
        0.7071067094802856,
        0.7071067690849304
      ],
      "min": [
        -0.4993053376674652,
        -0.49999749660491943,
        -0.49999749660491943,
        -0.4993053376674652
      ],
      "type": "VEC4"
    },
    {
      "bufferView": 4,
      "byteOffset": 95700,
      "componentType": 5126,
      "count": 3000,
      "max": [
        99.96666717529297
      ],
      "min": [
        0.0
      ],
      "type": "SCALAR"
    },
    {
      "bufferView": 5,
      "byteOffset": 179100,
      "componentType": 5126,
      "count": 3000,
      "max": [
        82473.875,
        71181.734375,
        0.0
      ],
      "min": [
        -181443.328125,
        -186964.6875,
        0.0
      ],
      "type": "VEC3"
    },
    {
      "bufferView": 4,
      "byteOffset": 107700,
      "componentType": 5126,
      "count": 2783,
      "max": [
        99.96666717529297
      ],
      "min": [
        0.0
      ],
      "type": "SCALAR"
    },
    {
      "bufferView": 5,
      "byteOffset": 215100,
      "componentType": 5126,
      "count": 2783,
      "max": [
        1.000000238418579,
        1.0,
        1.000000238418579
      ],
      "min": [
        0.9999997615814209,
        1.0,
        0.9999997615814209
      ],
      "type": "VEC3"
    },
    {
      "bufferView": 4,
      "byteOffset": 118832,
      "componentType": 5126,
      "count": 3000,
      "max": [
        99.96666717529297
      ],
      "min": [
        0.0
      ],
      "type": "SCALAR"
    },
    {
      "bufferView": 6,
      "byteOffset": 144000,
      "componentType": 5126,
      "count": 3000,
      "max": [
        0.7071067690849304,
        0.7071066498756409,
        0.7071066498756409,
        0.7071067690849304
      ],
      "min": [
        -0.49995702505111694,
        -0.49944329261779785,
        -0.49944329261779785,
        -0.49995702505111694
      ],
      "type": "VEC4"
    }
  ],
  "animations": [
    {
      "channels": [
        {
          "sampler": 0,
          "target": {
            "node": 4,
            "path": "translation"
          }
        },
        {
          "sampler": 1,
          "target": {
            "node": 4,
            "path": "scale"
          }
        },
        {
          "sampler": 2,
          "target": {
            "node": 4,
            "path": "rotation"
          }
        },
        {
          "sampler": 3,
          "target": {
            "node": 6,
            "path": "translation"
          }
        },
        {
          "sampler": 4,
          "target": {
            "node": 6,
            "path": "scale"
          }
        },
        {
          "sampler": 5,
          "target": {
            "node": 6,
            "path": "rotation"
          }
        },
        {
          "sampler": 6,
          "target": {
            "node": 8,
            "path": "translation"
          }
        },
        {
          "sampler": 7,
          "target": {
            "node": 8,
            "path": "scale"
          }
        },
        {
          "sampler": 8,
          "target": {
            "node": 8,
            "path": "rotation"
          }
        },
        {
          "sampler": 9,
          "target": {
            "node": 10,
            "path": "translation"
          }
        },
        {
          "sampler": 10,
          "target": {
            "node": 10,
            "path": "scale"
          }
        },
        {
          "sampler": 11,
          "target": {
            "node": 10,
            "path": "rotation"
          }
        }
      ],
      "name": "SphereAction",
      "samplers": [
        {
          "input": 25,
          "interpolation": "LINEAR",
          "output": 26
        },
        {
          "input": 27,
          "interpolation": "LINEAR",
          "output": 28
        },
        {
          "input": 29,
          "interpolation": "LINEAR",
          "output": 30
        },
        {
          "input": 31,
          "interpolation": "LINEAR",
          "output": 32
        },
        {
          "input": 33,
          "interpolation": "LINEAR",
          "output": 34
        },
        {
          "input": 35,
          "interpolation": "LINEAR",
          "output": 36
        },
        {
          "input": 37,
          "interpolation": "LINEAR",
          "output": 38
        },
        {
          "input": 39,
          "interpolation": "LINEAR",
          "output": 40
        },
        {
          "input": 41,
          "interpolation": "LINEAR",
          "output": 42
        },
        {
          "input": 43,
          "interpolation": "LINEAR",
          "output": 44
        },
        {
          "input": 45,
          "interpolation": "LINEAR",
          "output": 46
        },
        {
          "input": 47,
          "interpolation": "LINEAR",
          "output": 48
        }
      ]
    }
  ],
  "asset": {
    "extras": {
      "author": "Jungle Jim (https://sketchfab.com/jungle_jim)",
      "license": "CC-BY-4.0 (http://creativecommons.org/licenses/by/4.0/)",
      "source": "https://sketchfab.com/3d-models/deep-space-skybox-16k-with-planets-6d7f12515ff44fb6aa83d95a77124946",
      "title": "Deep Space skybox (16k) with planets"
    },
    "generator": "Sketchfab-16.74.0",
    "version": "2.0"
  },
  "bufferViews": [
    {
      "buffer": 0,
      "byteLength": 46080,
      "name": "floatBufferViews",
      "target": 34963
    },
    {
      "buffer": 0,
      "byteLength": 114008,
      "byteOffset": 46080,
      "byteStride": 8,
      "name": "floatBufferViews",
      "target": 34962
    },
    {
      "buffer": 0,
      "byteLength": 122952,
      "byteOffset": 160088,
      "byteStride": 12,
      "name": "floatBufferViews",
      "target": 34962
    },
    {
      "buffer": 0,
      "byteLength": 73024,
      "byteOffset": 283040,
      "byteStride": 16,
      "name": "floatBufferViews",
      "target": 34962
    },
    {
      "buffer": 0,
      "byteLength": 130832,
      "byteOffset": 356064,
      "name": "floatBufferViews"
    },
    {
      "buffer": 0,
      "byteLength": 248496,
      "byteOffset": 486896,
      "byteStride": 12,
      "name": "floatBufferViews"
    },
    {
      "buffer": 0,
      "byteLength": 192000,
      "byteOffset": 735392,
      "byteStride": 16,
      "name": "floatBufferViews"
    }
  ],
  "buffers": [
    {
      "byteLength": 927392,
      "uri": "scene.bin"
    }
  ],
  "extensionsUsed": [
    "KHR_materials_emissive_strength",
    "KHR_materials_specular"
  ],
  "images": [
    {
      "uri": "textures/Material_emissive.jpeg"
    },
    {
      "uri": "textures/Sphere.003_gameasset_Mat_1_baseColor.png"
    },
    {
      "uri": "textures/Sphere.003_gameasset_Mat_1_normal.png"
    },
    {
      "uri": "textures/Sphere.001_gameasset_Mat_1_baseColor.png"
    },
    {
      "uri": "textures/Sphere.001_gameasset_Mat_1_normal.png"
    },
    {
      "uri": "textures/Sphere.002_gameasset_Mat_1_baseColor.png"
    },
    {
      "uri": "textures/Sphere.002_gameasset_Mat_1_normal.png"
    }
  ],
  "materials": [
    {
      "doubleSided": true,
      "emissiveFactor": [
        1.0,
        1.0,
        1.0
      ],
      "emissiveTexture": {
        "index": 0
      },
      "extensions": {
        "KHR_materials_emissive_strength": {
          "emissiveStrength": 10.0
        },
        "KHR_materials_specular": {
          "specularColorFactor": [
            1.0,
            1.0,
            1.0
          ],
          "specularFactor": 0.46743941328478655
        }
      },
      "name": "Material",
      "pbrMetallicRoughness": {
        "baseColorFactor": [
          0.0,
          0.0,
          0.0,
          1.0
        ]
      }
    },
    {
      "doubleSided": true,
      "name": "Sphere.003_gameasset_Mat_1",
      "normalTexture": {
        "index": 2
      },
      "pbrMetallicRoughness": {
        "baseColorTexture": {
          "index": 1
        },
        "metallicFactor": 0.15587677392159618,
        "roughnessFactor": 0.0
      }
    },
    {
      "doubleSided": true,
      "name": "Sphere.001_gameasset_Mat_1",
      "normalTexture": {
        "index": 4
      },
      "pbrMetallicRoughness": {
        "baseColorTexture": {
          "index": 3
        },
        "roughnessFactor": 0.9159103584746285
      }
    },
    {
      "doubleSided": true,
      "name": "Sphere.002_gameasset_Mat_1",
      "normalTexture": {
        "index": 6
      },
      "pbrMetallicRoughness": {
        "baseColorTexture": {
          "index": 5
        },
        "metallicFactor": 0.0,
        "roughnessFactor": 0.9159103584746285
      }
    }
  ],
  "meshes": [
    {
      "name": "Sphere_Material_0",
      "primitives": [
        {
          "attributes": {
            "NORMAL": 1,
            "POSITION": 0,
            "TEXCOORD_0": 2
          },
          "indices": 3,
          "material": 0,
          "mode": 4
        }
      ]
    },
    {
      "name": "Sphere.003_gameasset_Sphere.003_gameasset_Mat_1_0",
      "primitives": [
        {
          "attributes": {
            "NORMAL": 5,
            "POSITION": 4,
            "TANGENT": 6,
            "TEXCOORD_0": 7,
            "TEXCOORD_1": 8,
            "TEXCOORD_2": 9
          },
          "indices": 10,
          "material": 1,
          "mode": 4
        }
      ]
    },
    {
      "name": "Sphere.001_gameasset_Sphere.001_gameasset_Mat_1_0",
      "primitives": [
        {
          "attributes": {
            "NORMAL": 12,
            "POSITION": 11,
            "TANGENT": 13,
            "TEXCOORD_0": 14,
            "TEXCOORD_1": 15,
            "TEXCOORD_2": 16
          },
          "indices": 17,
          "material": 2,
          "mode": 4
        }
      ]
    },
    {
      "name": "Sphere.002_gameasset_Sphere.002_gameasset_Mat_1_0",
      "primitives": [
        {
          "attributes": {
            "NORMAL": 19,
            "POSITION": 18,
            "TANGENT": 20,
            "TEXCOORD_0": 21,
            "TEXCOORD_1": 22,
            "TEXCOORD_2": 23
          },
          "indices": 24,
          "material": 3,
          "mode": 4
        }
      ]
    }
  ],
  "nodes": [
    {
      "children": [
        1
      ],
      "matrix": [
        1.0,
        0.0,
        0.0,
        0.0,
        0.0,
        2.220446049250313e-16,
        -1.0,
        0.0,
        0.0,
        1.0,
        2.220446049250313e-16,
        0.0,
        0.0,
        0.0,
        0.0,
        1.0
      ],
      "name": "Sketchfab_model"
    },
    {
      "children": [
        2
      ],
      "matrix": [
        0.009999999776482582,
        0.0,
        0.0,
        0.0,
        0.0,
        -0.009999999776482582,
        0.0,
        0.0,
        0.0,
        0.0,
        -0.009999999776482582,
        0.0,
        0.0,
        0.0,
        0.0,
        1.0
      ],
      "name": "f4c1964565064254adf948939a79a268.fbx"
    },
    {
      "children": [
        3
      ],
      "name": "Object_2"
    },
    {
      "children": [
        4,
        6,
        8,
        10
      ],
      "name": "RootNode"
    },
    {
      "children": [
        5
      ],
      "name": "Sphere",
      "rotation": [
        0.7071068286895752,
        0.0,
        0.0,
        0.7071068286895752
      ]
    },
    {
      "mesh": 0,
      "name": "Sphere_Material_0"
    },
    {
      "children": [
        7
      ],
      "name": "Sphere.003_gameasset",
      "rotation": [
        0.7071068286895752,
        0.0,
        0.0,
        0.7071068286895752
      ]
    },
    {
      "mesh": 1,
      "name": "Sphere.003_gameasset_Sphere.003_gameasset_Mat_1_0"
    },
    {
      "children": [
        9
      ],
      "name": "Sphere.001_gameasset",
      "rotation": [
        0.7071068286895752,
        0.0,
        0.0,
        0.7071068286895752
      ]
    },
    {
      "mesh": 2,
      "name": "Sphere.001_gameasset_Sphere.001_gameasset_Mat_1_0"
    },
    {
      "children": [
        11
      ],
      "name": "Sphere.002_gameasset",
      "rotation": [
        0.7071068286895752,
        0.0,
        0.0,
        0.7071068286895752
      ]
    },
    {
      "mesh": 3,
      "name": "Sphere.002_gameasset_Sphere.002_gameasset_Mat_1_0"
    }
  ],
  "samplers": [
    {
      "magFilter": 9729,
      "minFilter": 9987,
      "wrapS": 10497,
      "wrapT": 10497
    }
  ],
  "scene": 0,
  "scenes": [
    {
      "name": "Sketchfab_Scene",
      "nodes": [
        0
      ]
    }
  ],
  "textures": [
    {
      "sampler": 0,
      "source": 0
    },
    {
      "sampler": 0,
      "source": 1
    },
    {
      "sampler": 0,
      "source": 2
    },
    {
      "sampler": 0,
      "source": 3
    },
    {
      "sampler": 0,
      "source": 4
    },
    {
      "sampler": 0,
      "source": 5
    },
    {
      "sampler": 0,
      "source": 6
    }
  ]
}
